<svg width="186" height="33" viewBox="0 0 186 33" fill="none" xmlns="http://www.w3.org/2000/svg">
<path d="M30.0622 0.55474L11.5675 0.554721C7.19607 0.554806 7.30816 2.01188 6.8598 3.24486L0.13447 24.0933C-0.538105 26.4473 1.47954 27.456 2.48834 27.456H5.38458L11.5675 8.28889C11.6183 8.14936 11.6618 8.00696 11.7055 7.86413C12.0479 6.74479 12.3985 5.59883 16.2753 5.59875L33.201 5.59877C34.5557 1.30552 31.7016 0.226868 30.0622 0.55474Z" fill="#E1EEFF"/>
<path fill-rule="evenodd" clip-rule="evenodd" d="M5.38458 27.456H23.0006C25.5745 27.456 26.2026 25.9967 26.7465 24.7328C26.8422 24.5106 26.9352 24.2944 27.0358 24.0933L33.0886 5.9349C33.1289 5.82073 33.1663 5.7087 33.201 5.59877L16.2753 5.59875C12.3985 5.59883 12.0479 6.74479 11.7055 7.86413C11.6618 8.00696 11.6183 8.14936 11.5675 8.28889L5.38458 27.456Z" fill="#E1EEFF"/>
<path d="M33.0886 5.9349L27.0358 24.0933C26.9352 24.2944 26.8422 24.5106 26.7465 24.7328C26.2026 25.9967 25.5745 27.456 23.0006 27.456H5.38458L4.8422 29.1373C4.16963 31.4913 6.18727 32.5 7.19607 32.5H27.7083C30.7347 32.5 31.071 30.4825 31.7435 29.1373L37.7963 10.9789C39.4104 6.40571 36.4513 5.26251 34.7699 5.59877L33.201 5.59877C33.1663 5.7087 33.1289 5.82073 33.0886 5.9349Z" fill="white"/>
<path d="M48.3067 26V7.52H57.2947C59.572 7.53867 61.252 7.97733 62.3347 8.836C63.4174 9.676 63.9587 10.8987 63.9587 12.504C63.9587 13.5493 63.6507 14.4547 63.0347 15.22C62.4187 15.9667 61.476 16.4427 60.2067 16.648V16.676C61.6254 16.8627 62.68 17.3573 63.3707 18.16C64.08 18.944 64.4347 19.896 64.4347 21.016C64.4347 22.6027 63.8747 23.8347 62.7547 24.712C61.6347 25.5707 59.9547 26 57.7147 26H48.3067ZM52.9547 22.612H56.9027C57.78 22.612 58.4334 22.4347 58.8627 22.08C59.292 21.7253 59.5067 21.212 59.5067 20.54C59.5067 19.8867 59.292 19.392 58.8627 19.056C58.4334 18.7013 57.78 18.524 56.9027 18.524H52.9547V22.612ZM52.9547 15.08H56.4547C58.172 15.08 59.0307 14.408 59.0307 13.064C59.0307 11.72 58.172 11.048 56.4547 11.048H52.9547V15.08ZM73.9433 26.28C72.394 26.28 71.05 25.9907 69.9113 25.412C68.7913 24.8333 67.9233 24.0027 67.3073 22.92C66.6913 21.8373 66.3833 20.5307 66.3833 19C66.3833 17.4693 66.6913 16.1627 67.3073 15.08C67.9233 13.9973 68.782 13.1667 69.8833 12.588C71.0033 12.0093 72.282 11.72 73.7193 11.72C75.194 11.72 76.4447 12.0093 77.4713 12.588C78.5167 13.148 79.31 13.932 79.8513 14.94C80.3927 15.9293 80.6633 17.068 80.6633 18.356C80.6633 18.692 80.654 19.028 80.6353 19.364C80.6167 19.7 80.5887 19.98 80.5513 20.204H69.4633V17.656H78.4513L76.1833 18.524C76.1833 17.404 75.978 16.5453 75.5673 15.948C75.1753 15.3507 74.5593 15.052 73.7193 15.052C73.122 15.052 72.6087 15.192 72.1793 15.472C71.7687 15.752 71.4513 16.1907 71.2273 16.788C71.022 17.3853 70.9193 18.1507 70.9193 19.084C70.9193 19.9987 71.0407 20.7453 71.2833 21.324C71.526 21.884 71.8713 22.2947 72.3193 22.556C72.7673 22.7987 73.3087 22.92 73.9433 22.92C74.6527 22.92 75.2127 22.78 75.6233 22.5C76.0527 22.22 76.37 21.828 76.5753 21.324L80.3833 22.584C80.122 23.3867 79.6647 24.068 79.0113 24.628C78.3767 25.1693 77.6113 25.58 76.7153 25.86C75.838 26.14 74.914 26.28 73.9433 26.28ZM90.1582 26.28C88.6088 26.28 87.2648 25.9907 86.1262 25.412C85.0062 24.8333 84.1382 24.0027 83.5222 22.92C82.9062 21.8373 82.5982 20.5307 82.5982 19C82.5982 17.4693 82.9062 16.1627 83.5222 15.08C84.1382 13.9973 84.9968 13.1667 86.0982 12.588C87.2182 12.0093 88.4968 11.72 89.9342 11.72C91.4088 11.72 92.6595 12.0093 93.6862 12.588C94.7315 13.148 95.5248 13.932 96.0662 14.94C96.6075 15.9293 96.8782 17.068 96.8782 18.356C96.8782 18.692 96.8688 19.028 96.8502 19.364C96.8315 19.7 96.8035 19.98 96.7662 20.204H85.6782V17.656H94.6662L92.3982 18.524C92.3982 17.404 92.1928 16.5453 91.7822 15.948C91.3902 15.3507 90.7742 15.052 89.9342 15.052C89.3368 15.052 88.8235 15.192 88.3942 15.472C87.9835 15.752 87.6662 16.1907 87.4422 16.788C87.2368 17.3853 87.1342 18.1507 87.1342 19.084C87.1342 19.9987 87.2555 20.7453 87.4982 21.324C87.7408 21.884 88.0862 22.2947 88.5342 22.556C88.9822 22.7987 89.5235 22.92 90.1582 22.92C90.8675 22.92 91.4275 22.78 91.8382 22.5C92.2675 22.22 92.5848 21.828 92.7902 21.324L96.5982 22.584C96.3368 23.3867 95.8795 24.068 95.2262 24.628C94.5915 25.1693 93.8262 25.58 92.9302 25.86C92.0528 26.14 91.1288 26.28 90.1582 26.28ZM116.294 26H111.338L110.05 21.828H103.722L102.406 26H97.5622L104.058 7.52H109.826L116.294 26ZM104.618 18.552H109.154L106.886 11.076L104.618 18.552ZM135.381 12H140.365L136.137 26H130.425L127.877 17.404L125.413 26H119.729L115.473 12H120.485L122.837 22.332L125.581 12H130.285L133.001 22.332L135.381 12ZM149.9 17.124C149.9 16.4707 149.713 15.9573 149.34 15.584C148.985 15.192 148.5 14.996 147.884 14.996C147.268 14.996 146.736 15.1547 146.288 15.472C145.859 15.7707 145.56 16.312 145.392 17.096L141.36 16.144C141.621 14.8 142.312 13.7267 143.432 12.924C144.552 12.1213 146.129 11.72 148.164 11.72C149.527 11.72 150.684 11.9253 151.636 12.336C152.607 12.728 153.344 13.3253 153.848 14.128C154.371 14.912 154.632 15.8827 154.632 17.04V22.164C154.632 22.892 154.959 23.256 155.612 23.256C155.948 23.256 156.219 23.2187 156.424 23.144L156.144 25.86C155.584 26.1213 154.903 26.252 154.1 26.252C153.372 26.252 152.728 26.14 152.168 25.916C151.608 25.6733 151.169 25.3187 150.852 24.852C150.535 24.3667 150.376 23.76 150.376 23.032V22.864L150.908 22.668C150.908 23.4707 150.665 24.1427 150.18 24.684C149.713 25.2253 149.097 25.6267 148.332 25.888C147.585 26.1493 146.801 26.28 145.98 26.28C145.028 26.28 144.197 26.1307 143.488 25.832C142.779 25.5333 142.228 25.104 141.836 24.544C141.463 23.9653 141.276 23.256 141.276 22.416C141.276 21.408 141.575 20.5773 142.172 19.924C142.788 19.252 143.749 18.7853 145.056 18.524L150.348 17.432L150.32 19.952L147.632 20.512C147.072 20.624 146.652 20.792 146.372 21.016C146.111 21.2213 145.98 21.5387 145.98 21.968C145.98 22.3787 146.129 22.6867 146.428 22.892C146.727 23.0973 147.081 23.2 147.492 23.2C147.809 23.2 148.108 23.1533 148.388 23.06C148.687 22.9667 148.948 22.8267 149.172 22.64C149.396 22.4347 149.573 22.1827 149.704 21.884C149.835 21.5853 149.9 21.2307 149.9 20.82V17.124ZM158.303 26V12H162.503L162.699 15.024C163.053 13.9787 163.576 13.1667 164.267 12.588C164.976 12.0093 165.872 11.72 166.955 11.72C167.309 11.72 167.608 11.748 167.851 11.804C168.112 11.86 168.317 11.9347 168.467 12.028L167.991 15.948C167.804 15.8733 167.561 15.8173 167.263 15.78C166.983 15.724 166.637 15.696 166.227 15.696C165.667 15.696 165.144 15.8173 164.659 16.06C164.173 16.3027 163.781 16.6667 163.483 17.152C163.203 17.6187 163.063 18.216 163.063 18.944V26H158.303ZM177.002 26.28C175.453 26.28 174.109 25.9907 172.97 25.412C171.85 24.8333 170.982 24.0027 170.366 22.92C169.75 21.8373 169.442 20.5307 169.442 19C169.442 17.4693 169.75 16.1627 170.366 15.08C170.982 13.9973 171.841 13.1667 172.942 12.588C174.062 12.0093 175.341 11.72 176.778 11.72C178.253 11.72 179.503 12.0093 180.53 12.588C181.575 13.148 182.369 13.932 182.91 14.94C183.451 15.9293 183.722 17.068 183.722 18.356C183.722 18.692 183.713 19.028 183.694 19.364C183.675 19.7 183.647 19.98 183.61 20.204H172.522V17.656H181.51L179.242 18.524C179.242 17.404 179.037 16.5453 178.626 15.948C178.234 15.3507 177.618 15.052 176.778 15.052C176.181 15.052 175.667 15.192 175.238 15.472C174.827 15.752 174.51 16.1907 174.286 16.788C174.081 17.3853 173.978 18.1507 173.978 19.084C173.978 19.9987 174.099 20.7453 174.342 21.324C174.585 21.884 174.93 22.2947 175.378 22.556C175.826 22.7987 176.367 22.92 177.002 22.92C177.711 22.92 178.271 22.78 178.682 22.5C179.111 22.22 179.429 21.828 179.634 21.324L183.442 22.584C183.181 23.3867 182.723 24.068 182.07 24.628C181.435 25.1693 180.67 25.58 179.774 25.86C178.897 26.14 177.973 26.28 177.002 26.28Z" fill="#E1EEFF"/>
</svg>
