<svg width="60" height="60" viewBox="0 0 60 60" fill="none" xmlns="http://www.w3.org/2000/svg">
<g id="fluent:people-community-16-regular">
<path id="Vector" d="M11.25 11.25C11.25 9.26092 12.0402 7.35326 13.4467 5.94674C14.8532 4.54022 16.7609 3.75004 18.75 3.75004C20.7391 3.75004 22.6468 4.54022 24.0533 5.94674C25.4598 7.35326 26.25 9.26092 26.25 11.25C26.25 13.2392 25.4598 15.1468 24.0533 16.5533C22.6468 17.9599 20.7391 18.75 18.75 18.75C16.7609 18.75 14.8532 17.9599 13.4467 16.5533C12.0402 15.1468 11.25 13.2392 11.25 11.25ZM18.75 7.50004C17.7554 7.50004 16.8016 7.89513 16.0984 8.59839C15.3951 9.30165 15 10.2555 15 11.25C15 12.2446 15.3951 13.1984 16.0984 13.9017C16.8016 14.605 17.7554 15 18.75 15C19.7446 15 20.6984 14.605 21.4016 13.9017C22.1049 13.1984 22.5 12.2446 22.5 11.25C22.5 10.2555 22.1049 9.30165 21.4016 8.59839C20.6984 7.89513 19.7446 7.50004 18.75 7.50004ZM36.6712 17.19C35.8856 16.5908 35.2261 15.8422 34.7307 14.9872C34.2353 14.1323 33.9136 13.1879 33.7843 12.2082C33.655 11.2286 33.7206 10.2331 33.9772 9.27889C34.2339 8.32469 34.6765 7.4306 35.2798 6.648C35.883 5.8654 36.635 5.20972 37.4924 4.71864C38.3499 4.22755 39.2959 3.91074 40.2762 3.78641C41.2564 3.66208 42.2516 3.73268 43.2045 3.99416C44.1574 4.25563 45.0492 4.70283 45.8288 5.31004C47.3636 6.53781 48.3551 8.31902 48.59 10.2704C48.8249 12.2218 48.2844 14.1875 47.0848 15.7444C45.8851 17.3013 44.1223 18.3251 42.1754 18.5955C40.2286 18.8658 38.2497 18.3612 36.6712 17.19ZM41.25 7.50004C40.2554 7.50004 39.3016 7.89513 38.5984 8.59839C37.8951 9.30165 37.5 10.2555 37.5 11.25C37.5 12.2446 37.8951 13.1984 38.5984 13.9017C39.3016 14.605 40.2554 15 41.25 15C42.2446 15 43.1984 14.605 43.9016 13.9017C44.6049 13.1984 45 12.2446 45 11.25C45 10.2555 44.6049 9.30165 43.9016 8.59839C43.1984 7.89513 42.2446 7.50004 41.25 7.50004ZM9.375 22.5H19.3875C18.975 23.6738 18.75 24.9375 18.75 26.25H9.375C8.87772 26.25 8.40081 26.4476 8.04918 26.7992C7.69754 27.1508 7.5 27.6278 7.5 28.125C7.5 31.1888 8.71875 33.4613 10.6425 35.0063C11.5275 35.7188 12.5887 36.2925 13.7887 36.7125C12.9075 37.6492 12.2285 38.7572 11.7937 39.9675C10.5342 39.4635 9.35543 38.7774 8.295 37.9313C5.475 35.6625 3.75 32.31 3.75 28.125C3.75 26.6332 4.34263 25.2025 5.39752 24.1476C6.45242 23.0927 7.88316 22.5 9.375 22.5ZM23.505 22.5C22.5104 24.2236 22.2413 26.2717 22.7568 28.1937C23.2723 30.1157 24.5302 31.7542 26.2537 32.7488C27.9773 33.7434 30.0254 34.0125 31.9474 33.497C33.8694 32.9815 35.5079 31.7236 36.5025 30C37.4971 28.2765 37.7662 26.2284 37.2507 24.3064C36.7352 22.3844 35.4773 20.7459 33.7538 19.7513C32.0302 18.7567 29.9821 18.4876 28.0601 19.0031C26.1381 19.5186 24.4996 20.7765 23.505 22.5ZM29.16 22.5938C29.7094 22.4697 30.2797 22.4706 30.8288 22.5964C31.3779 22.7222 31.8917 22.9697 32.3322 23.3206C32.7728 23.6716 33.129 24.117 33.3744 24.6241C33.6197 25.1311 33.7481 25.6868 33.75 26.25C33.75 26.54 33.7188 26.82 33.6563 27.09C33.5058 27.7422 33.1836 28.3422 32.723 28.8278C32.2624 29.3134 31.6802 29.6669 31.0369 29.8515C30.3936 30.0362 29.7126 30.0454 29.0646 29.878C28.4166 29.7107 27.8251 29.3729 27.3517 28.8999C26.8782 28.4268 26.54 27.8357 26.3721 27.1878C26.2042 26.5399 26.2128 25.8589 26.3969 25.2154C26.5811 24.572 26.9341 23.9895 27.4193 23.5285C27.9045 23.0675 28.508 22.7448 29.16 22.5938ZM49.3538 35.0063C48.4688 35.7188 47.4075 36.2925 46.2075 36.7125C47.0874 37.6496 47.7652 38.7575 48.1987 39.9675C49.4737 39.4463 50.655 38.7675 51.7012 37.9313C54.525 35.6625 56.25 32.31 56.25 28.125C56.25 26.6332 55.6574 25.2025 54.6025 24.1476C53.5476 23.0927 52.1168 22.5 50.625 22.5H40.6125C41.025 23.6738 41.25 24.9375 41.25 26.25H50.625C51.1223 26.25 51.5992 26.4476 51.9508 26.7992C52.3025 27.1508 52.5 27.6278 52.5 28.125C52.5 31.1888 51.2775 33.4613 49.3538 35.0063ZM39.375 37.5C40.8668 37.5 42.2976 38.0927 43.3525 39.1476C44.4074 40.2025 45 41.6332 45 43.125C45 47.31 43.2788 50.6625 40.455 52.9313C37.6763 55.1625 33.9487 56.25 30 56.25C26.0513 56.25 22.3237 55.1625 19.545 52.9313C16.725 50.6625 15 47.31 15 43.125C14.998 42.3858 15.1422 41.6535 15.4241 40.9701C15.7061 40.2868 16.1204 39.6659 16.6431 39.1432C17.1658 38.6204 17.7867 38.2062 18.4701 37.9242C19.1534 37.6422 19.8858 37.4981 20.625 37.5H39.375ZM39.375 41.25H20.625C20.1277 41.25 19.6508 41.4476 19.2992 41.7992C18.9475 42.1508 18.75 42.6278 18.75 43.125C18.75 46.1888 19.9688 48.4613 21.8925 50.0063C23.865 51.5888 26.7 52.5 30 52.5C33.3 52.5 36.135 51.5888 38.1075 50.0063C40.0312 48.4613 41.25 46.1888 41.25 43.125C41.25 42.6278 41.0525 42.1508 40.7008 41.7992C40.3492 41.4476 39.8723 41.25 39.375 41.25Z" fill="#1F2B6C"/>
</g>
</svg>
