<svg width="188" height="114" viewBox="0 0 188 114" fill="none" xmlns="http://www.w3.org/2000/svg">
<path opacity="0.4" d="M140.5 15.8C140.5 20.3333 139.167 23.9333 136.5 26.6C133.967 29.4 130.5 30.8 126.1 30.8C121.7 30.8 118.167 29.4 115.5 26.6C112.833 23.9333 111.5 20.3333 111.5 15.8C111.5 11.1333 112.833 7.4 115.5 4.6C118.167 1.93333 121.7 0.600001 126.1 0.600001C130.5 0.600001 133.967 1.93333 136.5 4.6C139.167 7.4 140.5 11.1333 140.5 15.8ZM65.5 15.8C65.5 20.3333 64.1667 23.9333 61.5 26.6C58.9667 29.4 55.5 30.8 51.1 30.8C46.7 30.8 43.1667 29.4 40.5 26.6C37.8333 23.9333 36.5 20.3333 36.5 15.8C36.5 11.1333 37.8333 7.4 40.5 4.6C43.1667 1.93333 46.7 0.600001 51.1 0.600001C55.5 0.600001 58.9667 1.93333 61.5 4.6C64.1667 7.4 65.5 11.1333 65.5 15.8ZM187.9 102.17L176.7 113.37C169.1 104.97 161.033 98.237 152.5 93.1703C143.967 88.1036 134.9 84.437 125.3 82.1703C115.833 79.9036 105.433 78.7703 94.1 78.7703C83.0333 78.7703 72.6333 79.9036 62.9 82.1703C53.3 84.437 44.3 88.1036 35.9 93.1703C27.5 98.237 19.4333 104.97 11.7 113.37L0.499997 102.17C12.2333 87.637 25.9 76.637 41.5 69.1703C57.2333 61.837 74.7667 58.1703 94.1 58.1703C113.567 58.1703 131.167 61.837 146.9 69.1703C162.633 76.637 176.3 87.637 187.9 102.17Z" fill="#0D265B"/>
</svg>
