<svg width="100" height="100" viewBox="0 0 100 100" fill="none" xmlns="http://www.w3.org/2000/svg">
<g id="mdi:confidential-mode">
<path id="Vector" d="M35.4168 8.33337C25.0002 8.33337 16.6668 16.6667 16.6668 27.0834V29.1667C12.0418 29.1667 8.3335 32.875 8.3335 37.5V75C8.3335 79.625 12.0418 83.3334 16.6668 83.3334H36.3335C42.4168 88.7084 50.2502 91.6667 58.3335 91.6667C67.174 91.6667 75.6525 88.1548 81.9037 81.9036C88.1549 75.6524 91.6668 67.1739 91.6668 58.3334C91.6668 49.4928 88.1549 41.0144 81.9037 34.7631C75.6525 28.5119 67.174 25 58.3335 25C56.9168 25 55.5002 25.125 54.1668 25.3334C53.1668 15.7084 45.0835 8.33337 35.4168 8.33337ZM35.4168 16.6667C38.1795 16.6667 40.829 17.7642 42.7825 19.7177C44.736 21.6712 45.8335 24.3207 45.8335 27.0834V29.1667H25.0002V27.0834C25.0002 24.3207 26.0976 21.6712 28.0511 19.7177C30.0046 17.7642 32.6542 16.6667 35.4168 16.6667ZM58.3335 33.3334C64.9639 33.3334 71.3228 35.9673 76.0112 40.6557C80.6996 45.3441 83.3335 51.703 83.3335 58.3334C83.3335 64.9638 80.6996 71.3226 76.0112 76.011C71.3228 80.6995 64.9639 83.3334 58.3335 83.3334C51.7031 83.3334 45.3442 80.6995 40.6558 76.011C35.9674 71.3226 33.3335 64.9638 33.3335 58.3334C33.3335 51.703 35.9674 45.3441 40.6558 40.6557C45.3442 35.9673 51.7031 33.3334 58.3335 33.3334ZM54.1668 41.6667V62.5L69.3335 71.625L72.5835 66.25L60.4168 58.9584V41.6667H54.1668Z" fill="#1F2B6C"/>
</g>
</svg>
