<svg width="60" height="60" viewBox="0 0 60 60" fill="none" xmlns="http://www.w3.org/2000/svg">
<g id="Linear/Stethoscope">
<path id="Vector" d="M9.54206 6.3282L8.65477 4.81982L9.54206 6.3282ZM15.2 3H16.95C16.95 2.37224 16.6138 1.79258 16.0688 1.48091C15.5239 1.16925 14.8538 1.17333 14.3127 1.49162L15.2 3ZM41.2579 6.3282L42.1452 4.81982V4.81982L41.2579 6.3282ZM35.6 3L36.4873 1.49162C35.9462 1.17333 35.2761 1.16925 34.7312 1.48091C34.1862 1.79258 33.85 2.37224 33.85 3H35.6ZM13.45 7.5C13.45 8.4665 14.2335 9.25 15.2 9.25C16.1665 9.25 16.95 8.4665 16.95 7.5H13.45ZM33.85 7.5C33.85 8.4665 34.6335 9.25 35.6 9.25C36.5665 9.25 37.35 8.4665 37.35 7.5H33.85ZM44.05 13.8167V24H47.55V13.8167H44.05ZM32.2 34.25H18.6V37.75H32.2V34.25ZM6.75 24V13.8167H3.25V24H6.75ZM10.4293 7.83659L16.0873 4.50838L14.3127 1.49162L8.65477 4.81982L10.4293 7.83659ZM42.1452 4.81982L36.4873 1.49162L34.7127 4.50838L40.3707 7.83659L42.1452 4.81982ZM13.45 3V7.5H16.95V3H13.45ZM33.85 3V7.5H37.35V3H33.85ZM18.6 34.25C11.8432 34.25 6.75 29.4615 6.75 24H3.25C3.25 31.7933 10.3347 37.75 18.6 37.75V34.25ZM44.05 24C44.05 29.4615 38.9568 34.25 32.2 34.25V37.75C40.4653 37.75 47.55 31.7933 47.55 24H44.05ZM47.55 13.8167C47.55 10.1199 45.4565 6.76765 42.1452 4.81982L40.3707 7.83659C42.7346 9.22714 44.05 11.4951 44.05 13.8167H47.55ZM6.75 13.8167C6.75 11.4951 8.06541 9.22714 10.4293 7.83659L8.65477 4.81982C5.34345 6.76765 3.25 10.1199 3.25 13.8167H6.75ZM23.65 36V54H27.15V36H23.65ZM28.8 58.75H35.6V55.25H28.8V58.75ZM40.75 54V49.0909H37.25V54H40.75ZM42.4 47.8409H45.8V44.3409H42.4V47.8409ZM40.75 49.0909C40.75 48.6 41.2765 47.8409 42.4 47.8409V44.3409C39.768 44.3409 37.25 46.2682 37.25 49.0909H40.75ZM35.6 58.75C38.232 58.75 40.75 56.8228 40.75 54H37.25C37.25 54.4909 36.7235 55.25 35.6 55.25V58.75ZM23.65 54C23.65 56.8228 26.168 58.75 28.8 58.75V55.25C27.6765 55.25 27.15 54.4909 27.15 54H23.65ZM54.25 46.0895C54.25 47.4089 52.9624 48.8395 50.9 48.8395V52.3395C54.4709 52.3395 57.75 49.7407 57.75 46.0895H54.25ZM50.9 48.8395C48.8369 48.8395 47.55 47.4096 47.55 46.0909H44.05C44.05 49.7427 47.3298 52.3395 50.9 52.3395V48.8395ZM47.55 46.0909C47.55 44.7709 48.8383 43.3395 50.9 43.3395V39.8395C47.3284 39.8395 44.05 42.4404 44.05 46.0909H47.55ZM50.9 43.3395C52.9624 43.3395 54.25 44.7702 54.25 46.0895H57.75C57.75 42.4384 54.4709 39.8395 50.9 39.8395V43.3395Z" fill="#1F2B6C"/>
</g>
</svg>
